<svg version="1.1" xmlns="http://www.w3.org/2000/svg" xmlns:xlink="http://www.w3.org/1999/xlink" width="486" height="153.99074" viewBox="0,0,486,153.99074"><g transform="translate(3,-105.32246)"><g data-paper-data="{&quot;isPaintingLayer&quot;:true}" fill-rule="nonzero" stroke-linejoin="miter" stroke-miterlimit="10" stroke-dasharray="" stroke-dashoffset="0" style="mix-blend-mode: normal"><path d="M-3,259.3132v-116h486v116z" fill="#444576" stroke="none" stroke-width="NaN" stroke-linecap="butt"/><text transform="translate(12,131.73349) scale(0.72359,0.72359)" font-size="40" xml:space="preserve" fill="#000000" fill-rule="nonzero" stroke="none" stroke-width="1" stroke-linecap="butt" stroke-linejoin="miter" stroke-miterlimit="10" stroke-dasharray="" stroke-dashoffset="0" font-family="Arial" font-weight="normal" text-anchor="start" style="mix-blend-mode: normal"><tspan x="0" dy="0">A new version have just released!</tspan></text><text transform="translate(9,171.36468) scale(0.58816,0.58816)" font-size="40" xml:space="preserve" fill="#ffffff" fill-rule="nonzero" stroke="none" stroke-width="1" stroke-linecap="butt" stroke-linejoin="miter" stroke-miterlimit="10" stroke-dasharray="" stroke-dashoffset="0" font-family="Arial" font-weight="normal" text-anchor="start" style="mix-blend-mode: normal"><tspan x="0" dy="0">What's new?</tspan></text><text transform="translate(8,192.12479) scale(0.40788,0.40788)" font-size="40" xml:space="preserve" fill="#ffffff" fill-rule="nonzero" stroke="none" stroke-width="1" stroke-linecap="butt" stroke-linejoin="miter" stroke-miterlimit="10" stroke-dasharray="" stroke-dashoffset="0" font-family="Arial" font-weight="normal" text-anchor="start" style="mix-blend-mode: normal"><tspan x="0" dy="0">Custom block category</tspan><tspan x="0" dy="48px">select is now here! You can</tspan><tspan x="0" dy="48px">now also add dropdowns to</tspan><tspan x="0" dy="48px">your custom blocks!</tspan></text><text transform="translate(356,163.3132) scale(0.5,0.5)" font-size="40" xml:space="preserve" fill="#ffffff" fill-rule="nonzero" stroke="none" stroke-width="1" stroke-linecap="butt" stroke-linejoin="miter" stroke-miterlimit="10" stroke-dasharray="" stroke-dashoffset="0" font-family="Arial" font-weight="normal" text-anchor="start" style="mix-blend-mode: normal"><tspan x="0" dy="0">Version 1.1</tspan></text><g><path d="M295.16667,235.66667c0,0 -60.22083,-0.97411 -61.38406,-2.11088c-0.69931,-0.68341 -3.25733,-2.87942 -3.25142,-3.88991c0.04898,-8.37599 0.30214,-51.66587 0.30214,-51.66587c0,0 1.40138,-3.58016 3.33333,-3.66666c1.93195,-0.0865 63.66667,0.66666 63.66667,0.66666c0,0 1,3.42101 1,5.66667c0,1.69285 0.77247,31.8983 -0.16012,46.66708c-0.30455,4.82289 -3.17322,7.99958 -3.17322,7.99958" fill="#ffffff" stroke="#d9d9d9" stroke-width="2" stroke-linecap="round"/><g stroke-width="1" stroke-linecap="butt"><path d="M257.21852,204.85353c-4.47481,0 -8.10236,-4.63091 -8.10236,-10.34343v0c0,-5.71252 3.62755,-10.34343 8.10236,-10.34343h14.17913c4.47481,0 8.10235,4.63091 8.10235,10.34344v0c0,5.71252 -3.62754,10.34343 -8.10235,10.34343z" fill="#ff4d6a" stroke="#ff3355"/><text transform="translate(253.64142,202.39697) scale(0.64646,0.64646)" font-size="16" xml:space="preserve" fill="#ffffff" fill-rule="nonzero" stroke="none" stroke-width="1" stroke-linecap="butt" stroke-linejoin="miter" stroke-miterlimit="10" stroke-dasharray="" stroke-dashoffset="0" font-family="&quot;Helevetica Neue&quot;, Helvetica, sans-serif" font-weight="500" text-anchor="start" style="mix-blend-mode: normal"><tspan x="0" dy="0"> </tspan></text><g stroke="none"><path d="M273.46519,192.76682c0.00191,0.39378 -0.15416,0.77188 -0.43329,1.04965l-2.39223,2.39223c-0.58284,0.57789 -1.52257,0.57789 -2.10541,0l-2.38613,-2.39223c-0.28079,-0.27715 -0.43901,-0.65512 -0.43939,-1.04965c0.00113,-0.39497 0.15663,-0.77386 0.43329,-1.05575c0.17698,-0.14647 0.43939,-0.43329 3.44799,-0.43329c3.0086,0 3.28931,0.28072 3.44188,0.43329c0.27891,0.28041 0.4348,0.66026 0.43329,1.05575z" fill="#231f20" opacity="0.1"/><path d="M269.59003,196.03172c-0.22918,-0.00198 -0.4484,-0.09405 -0.61027,-0.25631l-2.40443,-2.39223c-0.32861,-0.34049 -0.32861,-0.88004 0,-1.22052c0.34175,-0.34175 5.68155,-0.34175 6.02329,0c0.32861,0.34049 0.32861,0.88004 0,1.22052l-2.39223,2.39223c-0.16337,0.16375 -0.38506,0.25593 -0.61636,0.25631z" fill="#ffffff"/></g></g><text transform="translate(241.52568,219.16187) scale(0.40465,0.40465)" font-size="18" xml:space="preserve" fill="#575e75" fill-rule="nonzero" stroke="none" stroke-width="1" stroke-linecap="butt" stroke-linejoin="miter" stroke-miterlimit="10" stroke-dasharray="" stroke-dashoffset="0" font-family="Helvetica" font-weight="bold" text-anchor="start" style="mix-blend-mode: normal"><tspan x="0" dy="0">Add an input  </tspan></text><text transform="translate(248,227.59397) scale(0.17798,0.17798)" font-size="40" xml:space="preserve" fill="#575e75" fill-rule="nonzero" stroke="none" stroke-width="1" stroke-linecap="butt" stroke-linejoin="miter" stroke-miterlimit="10" stroke-dasharray="" stroke-dashoffset="0" font-family="Arial" font-weight="normal" text-anchor="start" style="mix-blend-mode: normal"><tspan x="0" dy="0">drop down</tspan></text></g></g></g></svg>
