<svg version="1.1" xmlns="http://www.w3.org/2000/svg" xmlns:xlink="http://www.w3.org/1999/xlink" width="117.93903" height="117.67765" viewBox="0,0,117.93903,117.67765"><g transform="translate(-180.95556,-121.16118)"><g data-paper-data="{&quot;isPaintingLayer&quot;:true}" fill-rule="nonzero" stroke-linejoin="miter" stroke-miterlimit="10" stroke-dasharray="" stroke-dashoffset="0" style="mix-blend-mode: normal"><path d="M184.70556,180c0,-30.42471 24.6641,-55.08882 55.08882,-55.08882c30.42471,0 55.08882,24.6641 55.08882,55.08882c0,30.42471 -24.6641,55.08882 -55.08882,55.08882c-30.42471,0 -55.08882,-24.6641 -55.08882,-55.08882z" fill="#ffcc00" stroke="#ffa700" stroke-width="7.5" stroke-linecap="butt"/><path d="M258.2054,203.53801c-3.34347,1.38283 -6.57663,2.42065 -9.40118,2.90591c-2.38607,0.40952 -7.175,0.91534 -9.64896,0.91534c-2.96107,0 -9.29179,-0.35249 -13.08967,-1.62406c-5.08626,-1.70446 -11.4815,-6.15868 -14.58468,-11.17015c-6.61588,-10.67555 3.8549,-23.38001 3.25091,-22.64511l-2.08779,-17.68039l12.04062,7.96974c0,0 4.20552,-1.69323 8.62702,-1.90361c1.6521,-0.07948 4.62439,0.07853 6.06332,0.21225l2.66842,-1.03315l6.94687,-6.84401l2.66842,10.79896c0,0 6.07267,4.42713 7.80799,7.51909c2.62168,4.67114 2.4571,9.6742 2.4571,9.6742c0,0 6.93659,1.05838 8.31287,7.08618c1.37441,6.02779 -3.15181,12.14067 -12.03127,15.81885z" fill="#ffa700" stroke="#ffa700" stroke-width="7.5" stroke-linecap="butt"/><path d="M297.64354,193.62174c0,0 0.20185,6.46364 -4.9721,15.2201c-4.1455,7.01591 -9.92128,10.83213 -9.92128,10.83213l-86.0147,0.31577c0,0 -5.93482,-4.1739 -10.11918,-11.152c-3.8616,-6.43985 -4.26087,-14.97936 -4.26087,-14.97936z" fill="#ffcc00" stroke="#ffa700" stroke-width="2.5" stroke-linecap="round"/><text transform="translate(207.2813,215.62427) scale(0.53467,0.53467)" font-size="40" xml:space="preserve" fill="#ffa700" fill-rule="nonzero" stroke="none" stroke-width="15" stroke-linecap="butt" stroke-linejoin="miter" stroke-miterlimit="10" stroke-dasharray="" stroke-dashoffset="0" font-family="Sans Serif" font-weight="normal" text-anchor="start" style="mix-blend-mode: normal"><tspan x="0" dy="0">NITRO</tspan></text></g></g></svg>